<?xml version="1.0" encoding="UTF-8" standalone="no"?>
<!-- Created with Inkscape (http://www.inkscape.org/) -->

<svg
   xmlns:dc="http://purl.org/dc/elements/1.1/"
   xmlns:cc="http://creativecommons.org/ns#"
   xmlns:rdf="http://www.w3.org/1999/02/22-rdf-syntax-ns#"
   xmlns:svg="http://www.w3.org/2000/svg"
   xmlns="http://www.w3.org/2000/svg"
   xmlns:sodipodi="http://sodipodi.sourceforge.net/DTD/sodipodi-0.dtd"
   xmlns:inkscape="http://www.inkscape.org/namespaces/inkscape"
   width="400"
   height="150"
   id="svg2"
   version="1.1"
   inkscape:version="0.48.2 r9819"
   sodipodi:docname="LPA Pictogram 2.svg"
   inkscape:export-filename="/Users/timpaul/Documents/CODE/GDS/Prototyping/lasting-power-of-attorney/images/LPA Pictogram 2.png"
   inkscape:export-xdpi="90"
   inkscape:export-ydpi="90">
  <defs
     id="defs4" />
  <sodipodi:namedview
     id="base"
     pagecolor="#ffffff"
     bordercolor="#666666"
     borderopacity="1.0"
     inkscape:pageopacity="0"
     inkscape:pageshadow="2"
     inkscape:zoom="1.33"
     inkscape:cx="212.43726"
     inkscape:cy="106.99073"
     inkscape:document-units="px"
     inkscape:current-layer="layer1"
     showgrid="false"
     inkscape:window-width="1333"
     inkscape:window-height="798"
     inkscape:window-x="0"
     inkscape:window-y="0"
     inkscape:window-maximized="0" />
  <metadata
     id="metadata7">
    <rdf:RDF>
      <cc:Work
         rdf:about="">
        <dc:format>image/svg+xml</dc:format>
        <dc:type
           rdf:resource="http://purl.org/dc/dcmitype/StillImage" />
        <dc:title></dc:title>
      </cc:Work>
    </rdf:RDF>
  </metadata>
  <g
     inkscape:label="Layer 1"
     inkscape:groupmode="layer"
     id="layer1"
     transform="translate(0,-902.36218)">
    <rect
       style="fill:#808080;fill-opacity:1;stroke:none"
       id="rect4132"
       width="109.02256"
       height="130.0752"
       x="18.300753"
       y="918.28699" />
    <path
       style="fill:#312d4b;fill-opacity:0"
       d="m -841.29179,389.90939 0,-157.14286 270,0 270,0 0,157.14286 0,157.14286 -270,0 -270,0 0,-157.14286 z"
       id="path3914"
       inkscape:connector-curvature="0" />
    <rect
       style="fill:#ffffff;fill-opacity:1;stroke:#000000;stroke-width:4.27023125;stroke-miterlimit:4;stroke-opacity:1;stroke-dasharray:none"
       id="rect4013"
       width="106.01504"
       height="126.28029"
       x="13.759399"
       y="915.26447"
       ry="0" />
    <rect
       style="fill:#85994b;fill-opacity:1;stroke:none"
       id="rect4015"
       width="88.721802"
       height="12.781955"
       x="22.406013"
       y="925.03888" />
    <g
       id="g4142"
       transform="matrix(0.19327182,0.24339829,-0.24339829,0.19327182,329.50408,738.67546)">
      <rect
         y="859.12909"
         x="225.0215"
         height="260.15039"
         width="48.1203"
         id="rect4134"
         style="fill:#000000;fill-opacity:1;stroke:none" />
      <path
         inkscape:connector-curvature="0"
         id="path4136"
         d="m 227.29861,1118.0301 43.56609,0 -21.43728,63.1604 z"
         style="fill:#ffffff;stroke:#000000;stroke-width:3.8460927;stroke-linecap:butt;stroke-linejoin:miter;stroke-miterlimit:4;stroke-opacity:1;stroke-dasharray:none" />
      <path
         transform="translate(0,902.36218)"
         inkscape:connector-curvature="0"
         id="path4140"
         d="m 248.87218,281.57895 -7.5188,-26.31579 15.0376,0 z"
         style="fill:#000000;stroke:none" />
    </g>
    <path
       style="fill:#000000;fill-opacity:1;stroke:none"
       id="path4159"
       d="m 50.885491,1028.3069 c 4.889325,-0.3743 9.396996,-2.7342 13.691433,-4.9264 2.304576,-1.4351 7.084188,-3.8954 7.656314,-6.9175 0.08235,-0.435 -0.03692,-0.8847 -0.05538,-1.3271 -0.168693,0.5462 0.03718,1.4607 -0.50608,1.6387 -0.482757,0.1582 -0.625437,-0.8091 -1.00907,-1.1422 -0.428516,-0.372 -0.910533,-0.6839 -1.408327,-0.9563 -1.849593,-1.0122 -3.907415,-1.3296 -5.950122,-1.7006 -2.894606,-0.2698 -6.382952,-0.48 -8.67963,1.705 -0.353268,0.3361 -0.60295,0.7665 -0.904426,1.1498 -1.012885,0.6757 -0.3995,2.0513 -0.994513,2.8709 -0.239857,0.3303 -0.199062,-1.4797 0.115401,-1.2193 0.473941,0.3923 0.298392,1.1996 0.542818,1.7642 0.730304,1.6872 1.281956,2.1414 2.460567,3.5758 3.807853,3.9796 7.840864,5.7851 13.164893,6.8406 4.146722,0.4368 7.888502,-1.0059 11.099158,-3.5357 0.966209,-0.947 2.137431,-1.8773 2.63303,-3.1902 0.07371,-0.1953 0.126453,-0.8206 0.132775,-0.612 0.02476,0.817 -0.05136,1.634 -0.07704,2.451 -0.823271,-1.1923 -2.644583,-0.9759 -3.882038,-0.7344 -0.843588,0.3182 -2.100739,0.3564 -2.618631,1.2329 -0.120315,0.2036 -0.211877,0.9104 -0.221383,0.6741 -0.02861,-0.7113 0.10856,-1.4196 0.16284,-2.1295 1.128492,2.4636 3.698923,3.3321 6.142355,3.9472 2.276199,0.1679 3.957706,-0.8458 5.416389,-2.4835 0,0 0.240965,2.9146 0.240965,2.9146 l 0,0 c -1.57724,1.6474 -3.367994,2.6556 -5.727936,2.4677 -2.549888,-0.6249 -5.108651,-1.5146 -6.486077,-3.9273 -0.111089,-4.3387 -0.74142,-4.6338 3.035825,-5.6347 1.480651,-0.2789 3.191562,-0.3726 4.370798,0.7333 0.0095,1.1415 0.0777,2.2839 0.02846,3.4243 -0.06014,1.3929 -2.109024,2.8803 -2.960654,3.7555 -3.315555,2.4892 -7.138357,3.9315 -11.344115,3.4721 -5.365893,-1.0631 -9.473383,-2.8764 -13.356755,-6.8404 -0.504709,-0.5886 -1.059513,-1.1377 -1.514125,-1.7659 -2.286411,-3.1591 -2.634441,-7.564 -0.618737,-10.9375 0.328409,-0.3846 0.607025,-0.818 0.985228,-1.1538 2.416834,-2.1457 5.930261,-1.9356 8.905498,-1.6602 2.627036,0.4735 5.396112,0.8824 7.545509,2.6194 0.410645,0.3319 0.937308,0.6359 1.102362,1.1374 0.434568,1.3204 0.419178,2.7484 0.628766,4.1227 -0.02198,0.4437 0.04878,0.902 -0.06595,1.3312 -0.815557,3.0513 -5.440935,5.3237 -7.85823,6.816 -4.3613,2.21 -8.897887,4.5611 -13.822159,5.1178 0,0 0,-2.9677 0,-2.9677 z"
       inkscape:connector-curvature="0" />
    <g
       id="g4203">
      <path
         inkscape:connector-curvature="0"
         id="path4185"
         d="m 213.0589,981.92468 c -16.26426,9.60382 -27.6875,31.97962 -27.6875,58.09372 0,1.1131 0.0216,2.2136 0.0625,3.3125 l 90.75,0 c 0.041,-1.0989 0.0625,-2.1994 0.0625,-3.3125 0,-26.1141 -11.44465,-48.4899 -27.71875,-58.09372 -0.8983,0.46669 -1.71877,1.04078 -2.65625,1.4375 -2.31777,0.98083 -4.76084,1.76474 -7.28125,2.28125 -2.52041,0.51651 -5.11067,0.78125 -7.78125,0.78125 -2.67058,0 -5.29305,-0.26474 -7.8125,-0.78125 -2.51945,-0.51651 -4.96513,-1.30042 -7.28125,-2.28125 -0.93682,-0.39672 -1.7587,-0.97081 -2.65625,-1.4375 z"
         style="fill:#000000;fill-opacity:1;stroke:none" />
      <path
         sodipodi:type="arc"
         style="fill:#000000;fill-opacity:1;stroke:none"
         id="path4176"
         sodipodi:cx="204.88722"
         sodipodi:cy="-27.81955"
         sodipodi:rx="31.954887"
         sodipodi:ry="31.954887"
         d="m 236.84211,-27.81955 a 31.954887,31.954887 0 1 1 -63.90978,0 31.954887,31.954887 0 1 1 63.90978,0 z"
         transform="matrix(1.0170588,0,0,1.0170588,22.426548,977.41418)" />
    </g>
    <g
       id="g4207"
       transform="translate(116,0)">
      <path
         style="fill:#000000;fill-opacity:1;stroke:none"
         d="m 213.0589,981.92468 c -16.26426,9.60382 -27.6875,31.97962 -27.6875,58.09372 0,1.1131 0.0216,2.2136 0.0625,3.3125 l 90.75,0 c 0.041,-1.0989 0.0625,-2.1994 0.0625,-3.3125 0,-26.1141 -11.44465,-48.4899 -27.71875,-58.09372 -0.8983,0.46669 -1.71877,1.04078 -2.65625,1.4375 -2.31777,0.98083 -4.76084,1.76474 -7.28125,2.28125 -2.52041,0.51651 -5.11067,0.78125 -7.78125,0.78125 -2.67058,0 -5.29305,-0.26474 -7.8125,-0.78125 -2.51945,-0.51651 -4.96513,-1.30042 -7.28125,-2.28125 -0.93682,-0.39672 -1.7587,-0.97081 -2.65625,-1.4375 z"
         id="path4209"
         inkscape:connector-curvature="0" />
      <path
         transform="matrix(1.0170588,0,0,1.0170588,22.426548,977.41418)"
         d="m 236.84211,-27.81955 c 0,17.648197 -14.30669,31.9548878 -31.95489,31.9548878 -17.64819,0 -31.95489,-14.3066908 -31.95489,-31.9548878 0,-17.648197 14.3067,-31.954887 31.95489,-31.954887 17.6482,0 31.95489,14.30669 31.95489,31.954887 z"
         sodipodi:ry="31.954887"
         sodipodi:rx="31.954887"
         sodipodi:cy="-27.81955"
         sodipodi:cx="204.88722"
         id="path4211"
         style="fill:#000000;fill-opacity:1;stroke:none"
         sodipodi:type="arc" />
    </g>
  </g>
</svg>
