<?xml version="1.0" encoding="UTF-8" standalone="no"?>
<!-- Created with Inkscape (http://www.inkscape.org/) -->

<svg
   xmlns:dc="http://purl.org/dc/elements/1.1/"
   xmlns:cc="http://creativecommons.org/ns#"
   xmlns:rdf="http://www.w3.org/1999/02/22-rdf-syntax-ns#"
   xmlns:svg="http://www.w3.org/2000/svg"
   xmlns="http://www.w3.org/2000/svg"
   xmlns:sodipodi="http://sodipodi.sourceforge.net/DTD/sodipodi-0.dtd"
   xmlns:inkscape="http://www.inkscape.org/namespaces/inkscape"
   version="1.1"
   width="400"
   height="150"
   id="svg2"
   inkscape:version="0.48.2 r9819"
   sodipodi:docname="LPA Pictogram 1.svg"
   inkscape:export-filename="/Users/timpaul/Documents/CODE/GDS/Prototyping/lasting-power-of-attorney/images/LPA Pictogram 1.png"
   inkscape:export-xdpi="90"
   inkscape:export-ydpi="90">
  <sodipodi:namedview
     pagecolor="#ffffff"
     bordercolor="#666666"
     borderopacity="1"
     objecttolerance="10"
     gridtolerance="10"
     guidetolerance="10"
     inkscape:pageopacity="0"
     inkscape:pageshadow="2"
     inkscape:window-width="640"
     inkscape:window-height="480"
     id="namedview3047"
     showgrid="false"
     inkscape:zoom="0.88"
     inkscape:cx="200"
     inkscape:cy="75"
     inkscape:window-x="0"
     inkscape:window-y="0"
     inkscape:window-maximized="0"
     inkscape:current-layer="svg2" />
  <defs
     id="defs4" />
  <metadata
     id="metadata7">
    <rdf:RDF>
      <cc:Work
         rdf:about="">
        <dc:format>image/svg+xml</dc:format>
        <dc:type
           rdf:resource="http://purl.org/dc/dcmitype/StillImage" />
        <dc:title></dc:title>
      </cc:Work>
    </rdf:RDF>
  </metadata>
  <g
     transform="translate(0,-902.36218)"
     id="layer1">
    <path
       d="m -841.29179,389.90939 0,-157.14286 270,0 270,0 0,157.14286 0,157.14286 -270,0 -270,0 0,-157.14286 z"
       id="path3914"
       style="fill:#312d4b;fill-opacity:0" />
    <g
       transform="matrix(0.25826835,0,0,0.25826835,5.876373,893.4148)"
       id="g3978">
      <path
         d="M 109.40625,123.78125 C 87.566531,123.78125 70,141.37903 70,163.21875 l 0,340.5625 596.28125,0 c 0.28343,0 0.56178,0.006 0.84375,0 l 0,-340.5625 c 0,-21.83972 -17.56653,-39.4375 -39.40625,-39.4375 l -518.3125,0 z"
         id="rect2985"
         style="fill:#000000;fill-rule:evenodd;stroke:#000000;stroke-width:1.07228947px;stroke-linecap:butt;stroke-linejoin:miter;stroke-opacity:1" />
      <rect
         width="542.85712"
         height="314.28571"
         ry="0"
         x="97.133942"
         y="158.07651"
         id="rect3009"
         style="fill:#f2f2f2" />
      <path
         d="m 31.419643,515.79464 0,20 c 0,18.9943 15.28696,34.2813 34.28125,34.2813 l 605.718747,0 c 18.99429,0 34.28125,-15.287 34.28125,-34.2813 l 0,-20 -674.281247,0 z"
         id="rect3037"
         style="fill:#000000" />
      <path
         d="m 205.70537,336.6479 0,-135.71428 162.85713,0 162.85712,0 0,135.71428 0,135.71432 -162.85711,0 -162.85713,0 0,-135.71432 z"
         id="path3074"
         style="fill:#ffffff" />
      <rect
         width="277.14285"
         height="37.142849"
         x="229.99107"
         y="226.64786"
         id="rect3916"
         style="fill:#85994b;fill-opacity:1;stroke:none" />
      <rect
         width="122.85715"
         height="11.428573"
         x="307.13168"
         y="535.79077"
         id="rect3940"
         style="fill:#ffffff;fill-opacity:1;stroke:none" />
    </g>
    <rect
       width="159.3985"
       height="69.172935"
       ry="7.8308978"
       x="227.06767"
       y="972.40729"
       id="rect3988"
       style="fill:#000000;fill-opacity:1;stroke:none" />
    <rect
       width="106.01504"
       height="100"
       ry="0"
       x="253.7594"
       y="915.26447"
       id="rect4013"
       style="fill:#ffffff;fill-opacity:1;stroke:#000000;stroke-width:3.79999995;stroke-miterlimit:4;stroke-opacity:1;stroke-dasharray:none" />
    <rect
       width="88.721802"
       height="12.781955"
       x="262.40601"
       y="925.03888"
       id="rect4015"
       style="fill:#85994b;fill-opacity:1;stroke:none" />
    <path
       d="m 373.68421,86.466164 a 3.3834586,3.3834586 0 1 1 -6.76692,0 3.3834586,3.3834586 0 1 1 6.76692,0 z"
       transform="translate(2,904.36218)"
       id="path4017"
       style="fill:#ffffff;fill-opacity:1;stroke:none" />
    <path
       d="m 175.18797,1032.5577 66.16541,0"
       id="path4019"
       style="fill:none;stroke:#000000;stroke-width:4;stroke-linecap:butt;stroke-linejoin:miter;stroke-miterlimit:4;stroke-opacity:1;stroke-dasharray:none" />
  </g>
</svg>
