<?xml version="1.0" encoding="UTF-8" standalone="no"?>
<!-- Created with Inkscape (http://www.inkscape.org/) -->

<svg
   xmlns:dc="http://purl.org/dc/elements/1.1/"
   xmlns:cc="http://creativecommons.org/ns#"
   xmlns:rdf="http://www.w3.org/1999/02/22-rdf-syntax-ns#"
   xmlns:svg="http://www.w3.org/2000/svg"
   xmlns="http://www.w3.org/2000/svg"
   xmlns:sodipodi="http://sodipodi.sourceforge.net/DTD/sodipodi-0.dtd"
   xmlns:inkscape="http://www.inkscape.org/namespaces/inkscape"
   version="1.1"
   width="400"
   height="150"
   id="svg2"
   inkscape:version="0.48.2 r9819"
   sodipodi:docname="LPA Pictogram 3.svg"
   inkscape:export-filename="/Users/timpaul/Documents/CODE/GDS/Prototyping/lasting-power-of-attorney/images/LPA Pictogram 3.png"
   inkscape:export-xdpi="90"
   inkscape:export-ydpi="90">
  <sodipodi:namedview
     pagecolor="#ffffff"
     bordercolor="#666666"
     borderopacity="1"
     objecttolerance="10"
     gridtolerance="10"
     guidetolerance="10"
     inkscape:pageopacity="0"
     inkscape:pageshadow="2"
     inkscape:window-width="1131"
     inkscape:window-height="732"
     id="namedview4230"
     showgrid="false"
     inkscape:zoom="0.88"
     inkscape:cx="179.54545"
     inkscape:cy="29.545455"
     inkscape:window-x="0"
     inkscape:window-y="0"
     inkscape:window-maximized="0"
     inkscape:current-layer="svg2" />
  <defs
     id="defs4" />
  <metadata
     id="metadata7">
    <rdf:RDF>
      <cc:Work
         rdf:about="">
        <dc:format>image/svg+xml</dc:format>
        <dc:type
           rdf:resource="http://purl.org/dc/dcmitype/StillImage" />
        <dc:title></dc:title>
      </cc:Work>
    </rdf:RDF>
  </metadata>
  <g
     id="g4795"
     transform="translate(0,-0.1683161)">
    <rect
       y="23.269215"
       x="46.102379"
       height="114.24684"
       width="117.28956"
       id="rect4245"
       style="fill:#b10e1e;fill-opacity:1;stroke:none" />
    <path
       inkscape:connector-curvature="0"
       id="path4247"
       d="m 104.74716,12.649713 c -35.993622,0 -66.304031,4.981993 -75.531252,11.78956 l 151.062502,0 c -9.23384,-6.805474 -39.54485,-11.78956 -75.53125,-11.78956 z"
       style="fill:#b10e1e;fill-opacity:1;stroke:none" />
    <path
       inkscape:connector-curvature="0"
       id="path4255"
       d="m 29.532518,23.584449 3.597834,12.609157 10.073957,2.364215 -0.719572,3.940359 -3.59784,2.364216 0,2.364223 4.317412,2.364217 0,3.152285 59.004571,0 0,-29.158672 z"
       style="fill:#b10e1e;fill-opacity:1;stroke:none" />
    <path
       style="fill:#b10e1e;fill-opacity:1;stroke:none"
       d="m 179.29619,23.584449 -3.59783,12.609157 -10.07396,2.364215 0.71958,3.940359 3.59784,2.364216 0,2.364223 -4.31742,2.364217 0,3.152285 -59.00456,0 0,-29.158672 z"
       id="path4257"
       inkscape:connector-curvature="0" />
    <rect
       width="89.426331"
       height="27.625063"
       ry="3.1273658"
       x="60.033993"
       y="79.252823"
       id="rect3988"
       style="fill:#000000;fill-opacity:1;stroke:none" />
    <rect
       style="fill:#ffffff;fill-opacity:1;stroke:none"
       id="rect4282"
       y="51.290752"
       x="96.641548"
       ry="1.9635727"
       height="17.344893"
       width="16.211212" />
  </g>
  <path
     inkscape:connector-curvature="0"
     style="fill:#312d4b;fill-opacity:0"
     id="path3914"
     d="m -841.29179,-512.45279 0,-157.14286 270,0 270,0 0,157.14286 0,157.14286 -270,0 -270,0 0,-157.14286 z" />
  <path
     d="m 236.13254,23.021399 c -5.64051,0 -10.17739,4.54495 -10.17739,10.185458 l 0,87.956513 154.00058,0 c 0.0732,0 0.14509,0.002 0.21791,0 l 0,-87.956513 c 0,-5.640508 -4.53688,-10.185458 -10.17738,-10.185458 l -133.86372,0 z"
     id="rect2985"
     style="fill:#000000;fill-rule:evenodd;stroke:#000000;stroke-width:0.27693844px;stroke-linecap:butt;stroke-linejoin:miter;stroke-opacity:1"
     inkscape:connector-curvature="0" />
  <rect
     width="140.2028"
     height="81.170052"
     ry="0"
     x="232.963"
     y="31.878778"
     id="rect3009"
     style="fill:#f2f2f2" />
  <path
     d="m 215.99107,124.26605 0,5.16537 c 0,4.90562 3.94814,8.85377 8.85376,8.85377 l 156.43798,0 c 4.90563,0 8.85376,-3.94815 8.85376,-8.85377 l 0,-5.16537 -174.1455,0 z"
     id="rect3037"
     style="fill:#000000"
     inkscape:connector-curvature="0" />
  <rect
     width="31.730112"
     height="2.9516387"
     x="287.19876"
     y="129.43042"
     id="rect3940"
     style="fill:#ffffff;fill-opacity:1;stroke:none" />
  <path
     inkscape:connector-curvature="0"
     style="fill:#ffffff;fill-opacity:1;stroke:none"
     id="path4017"
     d="m 747.27512,175.96616 a 3.38346,3.38346 0 0 1 -6.76692,0 3.38346,3.38346 0 1 1 6.76692,0 z" />
  <path
     style="fill:#000000;fill-opacity:1;stroke:none"
     d="m 67.202967,86.58006 75.088383,0 0,50.76768 -75.088383,0 z"
     inkscape:connector-curvature="0" />
  <text
     xml:space="preserve"
     style="font-size:40px;font-style:normal;font-variant:normal;font-weight:normal;font-stretch:normal;line-height:125%;letter-spacing:0px;word-spacing:0px;fill:#000000;fill-opacity:1;stroke:none;font-family:Gill Sans;-inkscape-font-specification:Gill Sans"
     x="244.04546"
     y="86.363632"
     id="text4805"
     sodipodi:linespacing="125%"><tspan
       sodipodi:role="line"
       id="tspan4807"
       x="244.04546"
       y="86.363632">£</tspan></text>
  <rect
     style="fill:#008080;fill-opacity:1;stroke:#9799c4;stroke-width:0.75193882;stroke-opacity:1"
     id="rect4819"
     width="74.111702"
     height="42.293514"
     x="279.42142"
     y="51.012337"
     ry="5.5859361" />
  <rect
     style="fill:#ffffff;fill-opacity:0.91111112;stroke:none"
     id="rect4821"
     width="63.636364"
     height="9.090909"
     x="284.09091"
     y="77.545464"
     ry="2.792968" />
  <path
     inkscape:connector-curvature="0"
     d="m 71.203164,87.232326 67.087986,0 0,50.767674 -67.087986,0 z"
     style="fill:#ffffff;fill-opacity:1;stroke:none"
     id="path4847" />
  <rect
     style="fill:#85994b;fill-opacity:1;stroke:none"
     id="rect4015"
     y="91.3591"
     x="76.168106"
     height="10.571918"
     width="57.1581" />
</svg>
